<svg id="visual" viewBox="0 0 1920 1080" width="1920" height="1080" xmlns="http://www.w3.org/2000/svg" xmlns:xlink="http://www.w3.org/1999/xlink" version="1.1"><rect x="0" y="0" width="1920" height="1080" fill="#fff"></rect><path d="M0 790L26.7 784.5C53.3 779 106.7 768 160 773.3C213.3 778.7 266.7 800.3 320 814.8C373.3 829.3 426.7 836.7 480 835.2C533.3 833.7 586.7 823.3 640 805C693.3 786.7 746.7 760.3 800 757.8C853.3 755.3 906.7 776.7 960 790C1013.3 803.3 1066.7 808.7 1120 804.3C1173.3 800 1226.7 786 1280 788.2C1333.3 790.3 1386.7 808.7 1440 802.7C1493.3 796.7 1546.7 766.3 1600 751.3C1653.3 736.3 1706.7 736.7 1760 740.5C1813.3 744.3 1866.7 751.7 1893.3 755.3L1920 759L1920 1081L1893.3 1081C1866.7 1081 1813.3 1081 1760 1081C1706.7 1081 1653.3 1081 1600 1081C1546.7 1081 1493.3 1081 1440 1081C1386.7 1081 1333.3 1081 1280 1081C1226.7 1081 1173.3 1081 1120 1081C1066.7 1081 1013.3 1081 960 1081C906.7 1081 853.3 1081 800 1081C746.7 1081 693.3 1081 640 1081C586.7 1081 533.3 1081 480 1081C426.7 1081 373.3 1081 320 1081C266.7 1081 213.3 1081 160 1081C106.7 1081 53.3 1081 26.7 1081L0 1081Z" fill="#6b9eff"></path><path d="M0 849L26.7 845C53.3 841 106.7 833 160 837.7C213.3 842.3 266.7 859.7 320 857.7C373.3 855.7 426.7 834.3 480 832.2C533.3 830 586.7 847 640 845C693.3 843 746.7 822 800 809.2C853.3 796.3 906.7 791.7 960 792.3C1013.3 793 1066.7 799 1120 812.8C1173.3 826.7 1226.7 848.3 1280 863C1333.3 877.7 1386.7 885.3 1440 880.7C1493.3 876 1546.7 859 1600 850.3C1653.3 841.7 1706.7 841.3 1760 841.8C1813.3 842.3 1866.7 843.7 1893.3 844.3L1920 845L1920 1081L1893.3 1081C1866.7 1081 1813.3 1081 1760 1081C1706.7 1081 1653.3 1081 1600 1081C1546.7 1081 1493.3 1081 1440 1081C1386.7 1081 1333.3 1081 1280 1081C1226.7 1081 1173.3 1081 1120 1081C1066.7 1081 1013.3 1081 960 1081C906.7 1081 853.3 1081 800 1081C746.7 1081 693.3 1081 640 1081C586.7 1081 533.3 1081 480 1081C426.7 1081 373.3 1081 320 1081C266.7 1081 213.3 1081 160 1081C106.7 1081 53.3 1081 26.7 1081L0 1081Z" fill="#5b8ff2"></path><path d="M0 847L26.7 844.2C53.3 841.3 106.7 835.7 160 839.2C213.3 842.7 266.7 855.3 320 859.7C373.3 864 426.7 860 480 859.7C533.3 859.3 586.7 862.7 640 859.5C693.3 856.3 746.7 846.7 800 840.7C853.3 834.7 906.7 832.3 960 844.3C1013.3 856.3 1066.7 882.7 1120 886.3C1173.3 890 1226.7 871 1280 865.5C1333.3 860 1386.7 868 1440 879.2C1493.3 890.3 1546.7 904.7 1600 912.3C1653.3 920 1706.7 921 1760 906.2C1813.3 891.3 1866.7 860.7 1893.3 845.3L1920 830L1920 1081L1893.3 1081C1866.7 1081 1813.3 1081 1760 1081C1706.7 1081 1653.3 1081 1600 1081C1546.7 1081 1493.3 1081 1440 1081C1386.7 1081 1333.3 1081 1280 1081C1226.7 1081 1173.3 1081 1120 1081C1066.7 1081 1013.3 1081 960 1081C906.7 1081 853.3 1081 800 1081C746.7 1081 693.3 1081 640 1081C586.7 1081 533.3 1081 480 1081C426.7 1081 373.3 1081 320 1081C266.7 1081 213.3 1081 160 1081C106.7 1081 53.3 1081 26.7 1081L0 1081Z" fill="#4b7fe5"></path><path d="M0 906L26.7 902C53.3 898 106.7 890 160 892.2C213.3 894.3 266.7 906.7 320 906.5C373.3 906.3 426.7 893.7 480 889C533.3 884.3 586.7 887.7 640 901.7C693.3 915.7 746.7 940.3 800 941.7C853.3 943 906.7 921 960 915.8C1013.3 910.7 1066.7 922.3 1120 932.7C1173.3 943 1226.7 952 1280 950.8C1333.3 949.7 1386.7 938.3 1440 931.8C1493.3 925.3 1546.7 923.7 1600 916.7C1653.3 909.7 1706.7 897.3 1760 894.3C1813.3 891.3 1866.7 897.7 1893.3 900.8L1920 904L1920 1081L1893.3 1081C1866.7 1081 1813.3 1081 1760 1081C1706.7 1081 1653.3 1081 1600 1081C1546.7 1081 1493.3 1081 1440 1081C1386.7 1081 1333.3 1081 1280 1081C1226.7 1081 1173.3 1081 1120 1081C1066.7 1081 1013.3 1081 960 1081C906.7 1081 853.3 1081 800 1081C746.7 1081 693.3 1081 640 1081C586.7 1081 533.3 1081 480 1081C426.7 1081 373.3 1081 320 1081C266.7 1081 213.3 1081 160 1081C106.7 1081 53.3 1081 26.7 1081L0 1081Z" fill="#3970d7"></path><path d="M0 992L26.7 987.8C53.3 983.7 106.7 975.3 160 966C213.3 956.7 266.7 946.3 320 949.5C373.3 952.7 426.7 969.3 480 968.8C533.3 968.3 586.7 950.7 640 945.5C693.3 940.3 746.7 947.7 800 960.5C853.3 973.3 906.7 991.7 960 989.5C1013.3 987.3 1066.7 964.7 1120 952.8C1173.3 941 1226.7 940 1280 942.3C1333.3 944.7 1386.7 950.3 1440 950.5C1493.3 950.7 1546.7 945.3 1600 943.2C1653.3 941 1706.7 942 1760 950.7C1813.3 959.3 1866.7 975.7 1893.3 983.8L1920 992L1920 1081L1893.3 1081C1866.7 1081 1813.3 1081 1760 1081C1706.7 1081 1653.3 1081 1600 1081C1546.7 1081 1493.3 1081 1440 1081C1386.7 1081 1333.3 1081 1280 1081C1226.7 1081 1173.3 1081 1120 1081C1066.7 1081 1013.3 1081 960 1081C906.7 1081 853.3 1081 800 1081C746.7 1081 693.3 1081 640 1081C586.7 1081 533.3 1081 480 1081C426.7 1081 373.3 1081 320 1081C266.7 1081 213.3 1081 160 1081C106.7 1081 53.3 1081 26.7 1081L0 1081Z" fill="#2462ca"></path><path d="M0 1007L26.7 1005.7C53.3 1004.3 106.7 1001.7 160 1007.7C213.3 1013.7 266.7 1028.3 320 1030.7C373.3 1033 426.7 1023 480 1013.7C533.3 1004.3 586.7 995.7 640 993C693.3 990.3 746.7 993.7 800 1000.7C853.3 1007.7 906.7 1018.3 960 1024.5C1013.3 1030.7 1066.7 1032.3 1120 1029.5C1173.3 1026.7 1226.7 1019.3 1280 1019.8C1333.3 1020.3 1386.7 1028.7 1440 1024.7C1493.3 1020.7 1546.7 1004.3 1600 1005.5C1653.3 1006.7 1706.7 1025.3 1760 1028.5C1813.3 1031.7 1866.7 1019.3 1893.3 1013.2L1920 1007L1920 1081L1893.3 1081C1866.7 1081 1813.3 1081 1760 1081C1706.7 1081 1653.3 1081 1600 1081C1546.7 1081 1493.3 1081 1440 1081C1386.7 1081 1333.3 1081 1280 1081C1226.7 1081 1173.3 1081 1120 1081C1066.7 1081 1013.3 1081 960 1081C906.7 1081 853.3 1081 800 1081C746.7 1081 693.3 1081 640 1081C586.7 1081 533.3 1081 480 1081C426.7 1081 373.3 1081 320 1081C266.7 1081 213.3 1081 160 1081C106.7 1081 53.3 1081 26.7 1081L0 1081Z" fill="#0053bd"></path></svg>