<svg id="visual" viewBox="0 0 900 600" width="900" height="600" xmlns="http://www.w3.org/2000/svg" xmlns:xlink="http://www.w3.org/1999/xlink" version="1.1"><rect x="0" y="0" width="900" height="600" fill="#09090b"></rect><path d="M0 424L11.5 422.5C23 421 46 418 69 425.7C92 433.3 115 451.7 138.2 456C161.3 460.3 184.7 450.7 207.8 449.5C231 448.3 254 455.7 277 450.5C300 445.3 323 427.7 346 429C369 430.3 392 450.7 415.2 459.2C438.3 467.7 461.7 464.3 484.8 458.2C508 452 531 443 554 444C577 445 600 456 623 454.8C646 453.7 669 440.3 692.2 431.2C715.3 422 738.7 417 761.8 419.5C785 422 808 432 831 436.7C854 441.3 877 440.7 888.5 440.3L900 440L900 601L888.5 601C877 601 854 601 831 601C808 601 785 601 761.8 601C738.7 601 715.3 601 692.2 601C669 601 646 601 623 601C600 601 577 601 554 601C531 601 508 601 484.8 601C461.7 601 438.3 601 415.2 601C392 601 369 601 346 601C323 601 300 601 277 601C254 601 231 601 207.8 601C184.7 601 161.3 601 138.2 601C115 601 92 601 69 601C46 601 23 601 11.5 601L0 601Z" fill="#0053bd"></path><path d="M0 449L11.5 449.3C23 449.7 46 450.3 69 450.8C92 451.3 115 451.7 138.2 456C161.3 460.3 184.7 468.7 207.8 468.8C231 469 254 461 277 457C300 453 323 453 346 459.3C369 465.7 392 478.3 415.2 483.8C438.3 489.3 461.7 487.7 484.8 484.2C508 480.7 531 475.3 554 474.8C577 474.3 600 478.7 623 477.5C646 476.3 669 469.7 692.2 469.2C715.3 468.7 738.7 474.3 761.8 474.2C785 474 808 468 831 460.7C854 453.3 877 444.7 888.5 440.3L900 436L900 601L888.5 601C877 601 854 601 831 601C808 601 785 601 761.8 601C738.7 601 715.3 601 692.2 601C669 601 646 601 623 601C600 601 577 601 554 601C531 601 508 601 484.8 601C461.7 601 438.3 601 415.2 601C392 601 369 601 346 601C323 601 300 601 277 601C254 601 231 601 207.8 601C184.7 601 161.3 601 138.2 601C115 601 92 601 69 601C46 601 23 601 11.5 601L0 601Z" fill="#045dd3"></path><path d="M0 491L11.5 487.7C23 484.3 46 477.7 69 477.3C92 477 115 483 138.2 482.8C161.3 482.7 184.7 476.3 207.8 471.5C231 466.7 254 463.3 277 465.3C300 467.3 323 474.7 346 476C369 477.3 392 472.7 415.2 470.3C438.3 468 461.7 468 484.8 473.7C508 479.3 531 490.7 554 492.5C577 494.3 600 486.7 623 486.8C646 487 669 495 692.2 498.7C715.3 502.3 738.7 501.7 761.8 497.8C785 494 808 487 831 483C854 479 877 478 888.5 477.5L900 477L900 601L888.5 601C877 601 854 601 831 601C808 601 785 601 761.8 601C738.7 601 715.3 601 692.2 601C669 601 646 601 623 601C600 601 577 601 554 601C531 601 508 601 484.8 601C461.7 601 438.3 601 415.2 601C392 601 369 601 346 601C323 601 300 601 277 601C254 601 231 601 207.8 601C184.7 601 161.3 601 138.2 601C115 601 92 601 69 601C46 601 23 601 11.5 601L0 601Z" fill="#0b67e9"></path><path d="M0 518L11.5 513.8C23 509.7 46 501.3 69 501.3C92 501.3 115 509.7 138.2 513.8C161.3 518 184.7 518 207.8 512.7C231 507.3 254 496.7 277 495.7C300 494.7 323 503.3 346 503.5C369 503.7 392 495.3 415.2 494.3C438.3 493.3 461.7 499.7 484.8 505.3C508 511 531 516 554 513.8C577 511.7 600 502.3 623 503.2C646 504 669 515 692.2 515.3C715.3 515.7 738.7 505.3 761.8 505.5C785 505.7 808 516.3 831 519.5C854 522.7 877 518.3 888.5 516.2L900 514L900 601L888.5 601C877 601 854 601 831 601C808 601 785 601 761.8 601C738.7 601 715.3 601 692.2 601C669 601 646 601 623 601C600 601 577 601 554 601C531 601 508 601 484.8 601C461.7 601 438.3 601 415.2 601C392 601 369 601 346 601C323 601 300 601 277 601C254 601 231 601 207.8 601C184.7 601 161.3 601 138.2 601C115 601 92 601 69 601C46 601 23 601 11.5 601L0 601Z" fill="#1371ff"></path><path d="M0 540L11.5 538.2C23 536.3 46 532.7 69 528.5C92 524.3 115 519.7 138.2 520.8C161.3 522 184.7 529 207.8 532.3C231 535.7 254 535.3 277 530.8C300 526.3 323 517.7 346 514.5C369 511.3 392 513.7 415.2 513.5C438.3 513.3 461.7 510.7 484.8 512.2C508 513.7 531 519.3 554 520.8C577 522.3 600 519.7 623 521.2C646 522.7 669 528.3 692.2 530.2C715.3 532 738.7 530 761.8 527.5C785 525 808 522 831 522.2C854 522.3 877 525.7 888.5 527.3L900 529L900 601L888.5 601C877 601 854 601 831 601C808 601 785 601 761.8 601C738.7 601 715.3 601 692.2 601C669 601 646 601 623 601C600 601 577 601 554 601C531 601 508 601 484.8 601C461.7 601 438.3 601 415.2 601C392 601 369 601 346 601C323 601 300 601 277 601C254 601 231 601 207.8 601C184.7 601 161.3 601 138.2 601C115 601 92 601 69 601C46 601 23 601 11.5 601L0 601Z" fill="#3a80ff"></path><path d="M0 538L11.5 537.5C23 537 46 536 69 539.7C92 543.3 115 551.7 138.2 552C161.3 552.3 184.7 544.7 207.8 541C231 537.3 254 537.7 277 538.2C300 538.7 323 539.3 346 538.5C369 537.7 392 535.3 415.2 537.2C438.3 539 461.7 545 484.8 549.7C508 554.3 531 557.7 554 558.7C577 559.7 600 558.3 623 554.2C646 550 669 543 692.2 540C715.3 537 738.7 538 761.8 540C785 542 808 545 831 544.3C854 543.7 877 539.3 888.5 537.2L900 535L900 601L888.5 601C877 601 854 601 831 601C808 601 785 601 761.8 601C738.7 601 715.3 601 692.2 601C669 601 646 601 623 601C600 601 577 601 554 601C531 601 508 601 484.8 601C461.7 601 438.3 601 415.2 601C392 601 369 601 346 601C323 601 300 601 277 601C254 601 231 601 207.8 601C184.7 601 161.3 601 138.2 601C115 601 92 601 69 601C46 601 23 601 11.5 601L0 601Z" fill="#548fff"></path><path d="M0 564L11.5 566.3C23 568.7 46 573.3 69 574.2C92 575 115 572 138.2 568.7C161.3 565.3 184.7 561.7 207.8 563C231 564.3 254 570.7 277 574C300 577.3 323 577.7 346 575.5C369 573.3 392 568.7 415.2 565.5C438.3 562.3 461.7 560.7 484.8 562C508 563.3 531 567.7 554 569.5C577 571.3 600 570.7 623 569.7C646 568.7 669 567.3 692.2 568.2C715.3 569 738.7 572 761.8 570.8C785 569.7 808 564.3 831 565.2C854 566 877 573 888.5 576.5L900 580L900 601L888.5 601C877 601 854 601 831 601C808 601 785 601 761.8 601C738.7 601 715.3 601 692.2 601C669 601 646 601 623 601C600 601 577 601 554 601C531 601 508 601 484.8 601C461.7 601 438.3 601 415.2 601C392 601 369 601 346 601C323 601 300 601 277 601C254 601 231 601 207.8 601C184.7 601 161.3 601 138.2 601C115 601 92 601 69 601C46 601 23 601 11.5 601L0 601Z" fill="#6b9eff"></path></svg>