<svg xmlns="http://www.w3.org/2000/svg" width="500" height="500"><path fill="#1371FC" d="m380 90 1.726 1.398C405.29 110.594 424.6 136.207 437 164v2c-10.666.232-21.331.41-32 .518-4.954.052-9.906.123-14.86.236-4.785.11-9.569.169-14.355.195q-2.732.027-5.462.108c-14.244.407-14.244.407-19.4-3.225-2.28-2.503-4.118-4.975-5.923-7.832-17.651-22.535-46.266-34.557-74-38-34.943-3.806-70.081 3.562-98.422 24.902-3.67 2.986-7.148 6.158-10.582 9.41C160 154 160 154 158 154c-.235.548-.47 1.096-.71 1.66-1.629 2.955-3.691 5.24-5.915 7.778C129.531 189.1 119.807 223.66 122 257c3.112 36.274 18.676 70.119 46.563 94.027C190.663 368.913 217.25 381.022 246 382l3.14.121c37.142.72 66.523-13.166 93.09-38.43 2.77-2.585 2.77-2.585 4.908-5.324 3.748-3.1 6.766-3.04 11.416-2.935l2.574-.002c2.798.004 5.594.042 8.392.082q2.914.014 5.83.021c5.108.02 10.215.068 15.323.124 5.215.05 10.43.074 15.645.099 10.228.053 20.455.139 30.682.244a943 943 0 0 1-1.371 4.236l-.772 2.383c-1.383 3.84-3.289 7.335-5.295 10.881l-1.314 2.337C415.832 377.46 399.677 396.667 380 412l-1.6 1.273C352.039 434.154 320 446.598 287 452l-2.18.36c-53.199 8.32-109.071-5.568-152.674-36.786C114.53 402.705 98.928 387.594 86 370l-1.805-2.355c-31.147-42.101-42.74-96.833-36.368-148.395.575-3.788 1.329-7.514 2.173-11.25l.52-2.437C57.218 174.573 70.735 145.453 91 121l1.474-1.782C101.517 108.355 110.883 98.786 122 90l1.552-1.244C194.784 31.75 302.862 29.36 380 90"/><path fill="#1370FB" d="M233 157a89 89 0 0 1 1.688 4.75c2.073 5.448 4.276 7.412 9.312 10.25 5.43 1.81 10.097 1.701 15.25-.687 4.999-2.808 7.413-6.152 9.355-11.485l.798-2.175L270 156q4.157 1.218 8.313 2.438l2.38.697 2.295.674 2.11.618c1.644.495 3.274 1.03 4.902 1.573l-.543 2.309c-1.783 8.656-1.291 14.035 3.293 21.566 3.97 3.749 7.816 4.966 13.188 5.563 3.943-.138 6.82-1.516 10.203-3.465C318 187 318 187 322 186l11 16-5 5c-4.52 4.907-6.044 9.249-5.937 15.938.815 4.72 2.662 8.554 5.937 12.062 5.191 3.46 9.874 4.383 16 4 1 1 1 1 1.114 3.041l-.016 2.65-.01 2.862-.026 3.01-.013 3.021q-.018 3.708-.049 7.416l-2.341.107c-6.326.332-10.611.978-15.659 4.893-3.595 4.331-5.23 9.355-5 15 1.022 6.88 3.988 10.52 9.355 14.785L333 297c-3.054 6.872-7.16 12.267-12 18l-1.652-1.059c-5.35-3.228-10.005-5.336-16.348-4.941-5.871 1.761-10.048 4.44-13.043 9.902-2.73 6.592-1.552 12.315.043 19.098-13.633 5.556-13.633 5.556-20 6l-1.066-2.484c-3.99-8.782-3.99-8.782-11.934-13.516-5.138-1.53-9.036-.566-14 1l-2.875.875c-3.754 1.987-4.498 6.004-5.75 9.875-.39 1.199-.39 1.199-.79 2.422L233 344c-7.59-.446-14.016-3.115-21-6l1.063-3.375c1.38-5.652 1.51-11.382-1.075-16.71-2.942-4.4-5.953-7.184-11.21-8.45C192.83 308.2 187.53 310.647 181 315a728 728 0 0 1-4.375-5.625l-1.25-1.582c-2.647-3.458-4.229-6.598-5.375-10.793l2.188-1.375c4.76-4.443 7.438-9.865 8.312-16.312-.982-6.51-3.287-11.234-8.5-15.313-4.529-2.05-8.98-3.486-14-3-1.18-3.541-1.146-6.754-1.125-10.437l-.008-3.997c.103-2.768.292-4.957 1.133-7.566l3.063.188c5.634-.269 9.334-1.876 13.687-5.438 3.85-4.706 5.566-8.67 5.188-14.75-.69-4.866-2.027-8.038-4.938-12-2.582-1.937-2.582-1.937-5-3 .516-4.718 2.504-7.549 5.313-11.312l1.185-1.667c1.178-1.572 1.178-1.572 3.502-4.021 3.919 0 4.636.147 7.75 2 4.976 2.58 8.986 3.023 14.355 1.34 5.103-2.212 8.63-5.205 10.895-10.34 1.492-6.107 1.164-11.144-1-17 16.908-8.046 16.908-8.046 21-6m-2 75c-5.883 7.431-6.922 14.742-6 24 1.69 7.138 5.02 12.69 11 17 7.284 4.125 14.462 5.403 22.605 3.34 7.747-2.707 13.005-7.197 16.832-14.465 2.739-6.904 2.728-15.117.5-22.187-2.98-6.588-8.044-12.114-14.707-15-11.653-3.593-21.412-.906-30.23 7.312"/></svg>