<?xml version="1.0" encoding="UTF-8"?>
<svg version="1.1" xmlns="http://www.w3.org/2000/svg" width="500" height="500">
<path d="M0 0 C0.56960449 0.46132324 1.13920898 0.92264648 1.72607422 1.39794922 C25.2901818 20.59375879 44.5986078 46.20680896 57 74 C57 74.66 57 75.32 57 76 C46.334051 76.23224053 35.66870834 76.40965214 25.000741 76.51812172 C20.04637586 76.5701976 15.0937468 76.64076174 10.14038086 76.75439453 C5.35508255 76.86347809 0.57144786 76.92292834 -4.21499825 76.94877243 C-6.03598783 76.96717544 -7.8568916 77.00311619 -9.67716789 77.05730057 C-23.92143388 77.46424237 -23.92143388 77.46424237 -29.07693481 73.8324585 C-31.35721482 71.32934731 -33.19453711 68.8574104 -35 66 C-52.65110845 43.46541878 -81.26559438 31.44256761 -109 28 C-143.9434533 24.19434955 -179.08095661 31.56180191 -207.421875 52.90234375 C-211.09171737 55.88826095 -214.56974404 59.05966156 -218.00390625 62.3125 C-220 64 -220 64 -222 64 C-222.23460937 64.54785156 -222.46921875 65.09570312 -222.7109375 65.66015625 C-224.33886431 68.61509006 -226.40111001 70.90033758 -228.625 73.4375 C-250.46909109 99.10084756 -260.19343736 133.65975216 -258 167 C-254.88796427 203.27362075 -239.32355575 237.11862608 -211.4375 261.02734375 C-189.33714065 278.91305124 -162.75043659 291.02180467 -134 292 C-132.96359375 292.03996094 -131.9271875 292.07992188 -130.859375 292.12109375 C-93.71828014 292.84186842 -64.33672259 278.95482102 -37.76953125 253.69140625 C-35.00039982 251.10562911 -35.00039982 251.10562911 -32.86152649 248.36726379 C-29.11370231 245.26678979 -26.09571326 245.32730677 -21.44604492 245.43237305 C-20.59675415 245.43164291 -19.74746338 245.43091278 -18.87243652 245.43016052 C-16.07445676 245.43363484 -13.27815648 245.47248763 -10.48046875 245.51171875 C-8.53706268 245.52104745 -6.59364482 245.52816329 -4.65022278 245.53315735 C0.45792259 245.55222262 5.56535396 245.60131961 10.67321777 245.65667725 C15.88816672 245.70787974 21.10323136 245.73067355 26.31835938 245.75585938 C36.54588614 245.80943859 46.77288363 245.89474592 57 246 C56.54669338 247.41333575 56.0886361 248.8251482 55.62866211 250.23632812 C55.37410751 251.02269653 55.11955292 251.80906494 54.85728455 252.6192627 C53.4743279 256.45982705 51.56815863 259.95404016 49.5625 263.5 C49.12856934 264.27118164 48.69463867 265.04236328 48.24755859 265.83691406 C35.83224777 287.46131141 19.67660875 306.66790564 0 322 C-0.52770996 322.42007324 -1.05541992 322.84014648 -1.59912109 323.27294922 C-27.96189352 344.15412315 -59.99966055 356.59785726 -93 362 C-93.71913574 362.11859375 -94.43827148 362.2371875 -95.17919922 362.359375 C-148.37877312 370.67915942 -204.25100296 356.79188787 -247.85351562 325.57421875 C-265.47124266 312.70533626 -281.0724692 297.59458853 -294 280 C-294.59554687 279.22269531 -295.19109375 278.44539063 -295.8046875 277.64453125 C-326.95177836 235.54379839 -338.54406443 180.81195024 -332.1730957 129.24951172 C-331.59794539 125.46216446 -330.84431524 121.73558009 -330 118 C-329.82839355 117.19578613 -329.65678711 116.39157227 -329.47998047 115.56298828 C-322.78150815 84.57282636 -309.26492087 55.4525606 -289 31 C-288.51354004 30.41202637 -288.02708008 29.82405273 -287.52587891 29.21826172 C-278.4831418 18.35491638 -269.11700038 8.78578143 -258 0 C-257.48775879 -0.41040527 -256.97551758 -0.82081055 -256.44775391 -1.24365234 C-185.2156328 -58.25130058 -77.13715674 -60.6403639 0 0 Z " fill="#1371FC" transform="translate(380,90)"/>
<path d="M0 0 C0.61152898 1.56505048 1.16537081 3.15289894 1.6875 4.75 C3.76061012 10.1977593 5.96446545 12.16178962 11 15 C16.43060835 16.81020278 21.09743772 16.70097747 26.25 14.3125 C31.24893673 11.504878 33.66261371 8.16145256 35.60546875 2.828125 C35.8686792 2.11043945 36.13188965 1.39275391 36.40307617 0.65332031 C36.60006104 0.10772461 36.7970459 -0.43787109 37 -1 C39.77102926 -0.18816332 42.54182927 0.62444141 45.3125 1.4375 C46.09818359 1.66759766 46.88386719 1.89769531 47.69335938 2.13476562 C48.45068359 2.35712891 49.20800781 2.57949219 49.98828125 2.80859375 C50.68477783 3.01282959 51.38127441 3.21706543 52.09887695 3.42749023 C53.74173766 3.92222612 55.37230856 4.45743619 57 5 C56.82082031 5.76183594 56.64164063 6.52367187 56.45703125 7.30859375 C54.67387013 15.96503045 55.16603053 21.34419301 59.75 28.875 C63.71924769 32.62373393 67.56609573 33.8406773 72.9375 34.4375 C76.88073786 34.29967809 79.75845752 32.92229412 83.140625 30.97265625 C85 30 85 30 89 29 C94.445 36.92 94.445 36.92 100 45 C97.525 47.475 97.525 47.475 95 50 C90.48056883 54.90681099 88.95632812 59.24867172 89.0625 65.9375 C89.87826577 70.65794238 91.72457942 74.49172962 95 78 C100.19127688 81.46085125 104.87395459 82.38287784 111 82 C112 83 112 83 112.11352539 85.04125977 C112.10828857 85.91580811 112.10305176 86.79035645 112.09765625 87.69140625 C112.09443359 88.63564453 112.09121094 89.57988281 112.08789062 90.55273438 C112.07951172 91.54595703 112.07113281 92.53917969 112.0625 93.5625 C112.05798828 94.55958984 112.05347656 95.55667969 112.04882812 96.58398438 C112.03700007 99.05604849 112.02051849 101.52799518 112 104 C111.22736816 104.03528809 110.45473633 104.07057617 109.65869141 104.10693359 C103.33321008 104.43949524 99.04781879 105.08536502 94 109 C90.40513743 113.33142462 88.76958182 118.35475454 89 124 C90.02181471 130.87942692 92.98828699 134.52042264 98.35546875 138.78515625 C98.89816406 139.18605469 99.44085938 139.58695313 100 140 C96.94571355 146.87214452 92.83999371 152.26719191 88 158 C87.45472656 157.65066406 86.90945313 157.30132812 86.34765625 156.94140625 C80.99815661 153.71341758 76.34295066 151.60501772 70 152 C64.12854536 153.76143639 59.95161741 156.44030831 56.95703125 161.90234375 C54.22756439 168.49358906 55.40457258 174.21656398 57 181 C43.3667426 186.55580866 43.3667426 186.55580866 37 187 C36.64808594 186.18015625 36.29617188 185.3603125 35.93359375 184.515625 C31.94396741 175.73447796 31.94396741 175.73447796 24 171 C18.8622843 169.4696166 14.96406821 170.4340156 10 172 C9.05125 172.28875 8.1025 172.5775 7.125 172.875 C3.3711599 174.86232711 2.62738227 178.87900024 1.375 182.75 C0.98441406 183.94882812 0.98441406 183.94882812 0.5859375 185.171875 C0.39257812 185.77515625 0.19921875 186.3784375 0 187 C-7.58954531 186.55355616 -14.01639737 183.88499438 -21 181 C-20.649375 179.88625 -20.29875 178.7725 -19.9375 177.625 C-18.55700487 171.97297285 -18.42726184 166.24263389 -21.01171875 160.9140625 C-23.9538916 156.51472518 -26.965266 153.73068288 -32.22265625 152.46484375 C-40.1698133 151.19968583 -45.46981831 153.64654554 -52 158 C-53.46870557 156.13238675 -54.92470221 154.25682812 -56.375 152.375 C-56.99375 151.59189453 -56.99375 151.59189453 -57.625 150.79296875 C-60.27187456 147.33495522 -61.85357042 144.19517639 -63 140 C-62.278125 139.54625 -61.55625 139.0925 -60.8125 138.625 C-56.05217324 134.18202836 -53.37422186 128.75988625 -52.5 122.3125 C-53.48244725 115.80378699 -55.78737961 111.07944204 -61 107 C-65.52851875 104.94981606 -69.97959997 103.51415484 -75 104 C-76.1804489 100.45865331 -76.14618724 97.24554786 -76.125 93.5625 C-76.12757813 92.24378906 -76.13015625 90.92507812 -76.1328125 89.56640625 C-76.0297031 86.79761546 -75.84082567 84.60922886 -75 82 C-73.989375 82.061875 -72.97875 82.12375 -71.9375 82.1875 C-66.30328524 81.91920406 -62.60311693 80.31164112 -58.25 76.75 C-54.40004036 72.04449378 -52.68428385 68.07913279 -53.0625 62 C-53.75126308 57.13422214 -55.08880527 53.9624595 -58 50 C-60.58203721 48.06305417 -60.58203721 48.06305417 -63 47 C-62.48355933 42.28200812 -60.49551098 39.45142961 -57.6875 35.6875 C-57.29626953 35.13771484 -56.90503906 34.58792969 -56.50195312 34.02148438 C-55.32421875 32.44921875 -55.32421875 32.44921875 -53 30 C-49.08125749 30 -48.3635067 30.14733486 -45.25 32 C-40.27437047 34.57995605 -36.26413655 35.02344912 -30.89453125 33.33984375 C-25.79161153 31.12825941 -22.26497208 28.13523842 -20 23 C-18.50755314 16.89275036 -18.83583623 11.85597256 -21 6 C-4.09158416 -2.04579208 -4.09158416 -2.04579208 0 0 Z M-2 75 C-7.88298398 82.43113766 -8.92230983 89.74187723 -8 99 C-6.30920509 106.13778689 -2.97923174 111.68992281 3 116 C10.28381561 120.12545523 17.4620604 121.40316611 25.60546875 119.33984375 C33.35164912 116.63278223 38.61017689 112.14291323 42.4375 104.875 C45.17562488 97.97067648 45.16455995 89.75841536 42.9375 82.6875 C39.95728306 76.10038498 34.89261054 70.57399857 28.23046875 67.6875 C16.57662257 64.09542132 6.81765872 66.78218201 -2 75 Z " fill="#1370FB" transform="translate(233,157)"/>
</svg>
